<?xml version="1.0" encoding="UTF-8"?>
<svg version="1.1" xmlns="http://www.w3.org/2000/svg" width="102" height="117">
<path d="M0 0 C16.17 0 32.34 0 49 0 C49 15.51 49 31.02 49 47 C65.5 47 82 47 99 47 C99 59.65102162 95.20899581 69.62199112 86.48828125 78.8515625 C81.78397579 83.4640819 76.48952132 86.7892371 70.875 90.1875 C61.97695254 95.47561313 61.97695254 95.47561313 54 102 C54 102.99 54 103.98 54 105 C69.1054627 105.30379702 83.96077236 104.39623447 99 103 C94.99609375 107.78515625 94.99609375 107.78515625 93 110 C92.63900711 110.58792831 92.27801422 111.17585663 91.90608215 111.78160095 C89.06548818 115.65309912 86.8531586 116.86476307 82.06307983 117.62405396 C76.90081712 117.93869579 71.74232511 117.84065617 66.57421875 117.75390625 C64.66088298 117.74591973 62.74753357 117.74074824 60.83418274 117.73826599 C56.83518235 117.72605115 52.83728511 117.69115509 48.83862305 117.63793945 C43.70582479 117.56985329 38.5738034 117.54108583 33.4406004 117.52694798 C28.54753632 117.51184827 23.6546662 117.4774055 18.76171875 117.44140625 C17.35722253 117.43349154 17.35722253 117.43349154 15.92435265 117.42541695 C13.28614972 117.4070287 10.64850097 117.37489515 8.01049805 117.33813477 C7.2245224 117.334328 6.43854675 117.33052124 5.62875366 117.32659912 C0.22961867 117.22961867 0.22961867 117.22961867 -2 115 C-3.45906816 106.48311379 -0.81479276 97.85704729 3.4375 90.51953125 C10.34383416 80.8739059 20.91183726 75.24679504 31.07373047 69.58813477 C35.34653246 67.16641799 38.6602093 64.67563558 42 61 C42.556875 60.4225 43.11375 59.845 43.6875 59.25 C45.68006561 56.09652609 45.68006561 56.09652609 47 48 C31.49 48 15.98 48 0 48 C0 32.16 0 16.32 0 0 Z " fill="#F6F2EB" transform="translate(3,0)"/>
</svg>
