<svg width="101" height="116" viewBox="0 0 101 116" fill="none" xmlns="http://www.w3.org/2000/svg">
<path fill-rule="evenodd" clip-rule="evenodd" d="M50.2764 47.0408H2.06616V23.5262V0H50.2764V47.0408Z" fill="#2E1E1B"/>
<path fill-rule="evenodd" clip-rule="evenodd" d="M2.4182 115.855C1.56667 114.953 0.794181 113.975 0.111816 112.933C0.173568 111.593 0.292502 109.932 0.389536 109.039C0.510456 108.05 0.698554 106.672 0.806039 105.968C0.926959 105.263 1.23598 103.795 1.49125 102.717C1.73309 101.623 2.16303 100.065 2.43174 99.2707C2.70045 98.4617 3.27818 96.9935 3.69469 96.0047C4.12462 95.0159 4.82327 93.6076 5.23978 92.8585C5.65628 92.1095 6.43554 90.866 6.95953 90.0869C7.49695 89.3079 8.53149 87.9595 9.27044 87.1055C10.0094 86.2516 11.2186 84.9632 11.9576 84.259C12.6965 83.5399 13.9326 82.4612 14.7119 81.832C15.4911 81.2027 16.8481 80.184 17.7349 79.5547C18.6216 78.9405 20.1936 77.9217 21.2281 77.2775C22.2626 76.6333 25.7962 74.6257 29.0879 72.798C32.3796 70.9702 35.7922 69.0076 36.679 68.4533C37.5657 67.8839 38.963 66.9251 39.7692 66.3258C40.5753 65.7266 41.7308 64.7977 42.3219 64.2733C42.9131 63.734 44.0014 62.6104 44.7403 61.7564C45.4793 60.8875 46.4332 59.614 46.8497 58.9248C47.2662 58.2207 47.8843 57.0072 48.2202 56.2281C48.556 55.4491 48.9725 54.2056 49.1741 53.4565C49.3622 52.7074 49.604 51.5089 49.7115 50.7598C49.819 50.0107 49.9265 48.8421 49.9668 48.138C49.9913 47.7087 50.0159 47.324 50.0314 47.0823C50.0412 46.9275 50.0474 46.8313 50.0474 46.8196C50.0474 46.8046 61.387 46.8046 75.2256 46.8196C89.0777 46.8495 100.458 46.9244 100.525 46.9844C100.579 47.0593 100.552 48.3327 100.471 49.8309C100.377 51.3291 100.202 53.2318 100.095 54.0558C99.9739 54.8798 99.7321 56.333 99.544 57.2769C99.3425 58.2207 98.9528 59.7788 98.6707 60.7227C98.3885 61.6665 97.8646 63.1946 97.5018 64.0936C97.139 64.9925 96.4673 66.4457 96.0239 67.3146C95.5805 68.1836 94.8281 69.487 94.3579 70.2211C93.8876 70.9552 92.9606 72.2736 92.2888 73.1425C91.617 74.0115 90.5287 75.2999 89.8704 76.0041C89.2121 76.7082 88.0297 77.8618 87.2639 78.5659C86.4846 79.2851 85.1814 80.3937 84.3753 81.0379C83.5691 81.6971 82.1718 82.7309 81.2851 83.3601C80.3983 83.9893 78.7995 85.068 77.7247 85.7722C76.6498 86.4763 73.7746 88.2591 71.3428 89.7423L70.547 90.2325C68.3378 91.5931 66.0566 92.9981 65.2296 93.5327C64.3025 94.132 62.7037 95.2406 61.6692 96.0047C60.6346 96.7688 59.1567 97.9374 58.3774 98.6265C57.5982 99.3007 56.3621 100.559 55.6231 101.398C55.2878 101.779 54.8998 102.252 54.5333 102.724C50.4795 108.605 76.3283 105.82 90.9708 104.243C96.6405 103.632 100.63 103.202 100.553 103.526L93.1044 110.749L87.2639 115.856L32.3931 115.751C23.3319 115.806 12.9489 115.849 2.4182 115.855ZM21.6797 46.7896C21.6856 46.785 21.6914 46.7805 21.6973 46.7759H50.0474V46.7896H21.6797Z" fill="#2E1E1B"/>
</svg>
